name processed_emg_signals
nRows=98
nColumns=7
 
endheader
time	RGLTMED	RRF	RADDLONG	RST	RTA	RGM
0.885	0.4593449461623153	0.1642899030569098	0.1886935244978336	0.0786609280024548	0.1772418486703299	0.3948600102842012
0.886	0.4583107321510316	0.1646224545975012	0.1879012405027562	0.0786230794447562	0.1792770231838536	0.399661337867797
0.887	0.4572191674472628	0.1649626909630486	0.1871236592840544	0.078566278044411	0.1813004245083355	0.4044241942508056
0.888	0.4560706551814928	0.1653103674607409	0.1863616899718076	0.0784904255843189	0.1833104707728699	0.4091452042337299
0.889	0.45486562648159	0.1656652234541414	0.185616233089169	0.0783954539010114	0.1853055809391987	0.4138209914835559
0.89	0.4536045410073443	0.1660269828072363	0.1848881803842737	0.0782813247548623	0.1872841766210637	0.4184481823624362
0.891	0.4522878874756563	0.1663953543621575	0.184178414675105	0.0781480296341221	0.1892446838992416	0.423023409805413
0.892	0.4509161841712569	0.1667700324507002	0.1834878097062733	0.0779955894929095	0.1911855351282406	0.4275433172349309
0.893	0.4494899794376283	0.1671506974390724	0.182817230016118	0.0778240544237223	0.1931051707308011	0.4320045625001362
0.894	0.448009852142611	0.1675370163050006	0.1821675308126157	0.0776335032655193	0.1950020409767392	0.4364038218295887
0.895	0.4464764121136155	0.1679286432459638	0.1815395578565912	0.0774240431487127	0.1968746077431404	0.4407377937867572
0.896	0.4448903005376939	0.1683252203168502	0.1809341473506724	0.0771958089789242	0.1987213462533852	0.4450032032189632
0.897	0.4432521903228572	0.1687263780949339	0.1803521258325448	0.0769489628618779	0.200540746792746	0.4491968051920472
0.898	0.4415627864180347	0.1691317363703676	0.1797943100712981	0.0766836934724254	0.2023313163984016	0.4533153889052281
0.899	0.4398228260894297	0.1695409048593897	0.1792615069652014	0.0764002153710506	0.2040915805216761	0.4573557815828455
0.9	0.4380330791513927	0.1699534839383651	0.1787545134392577	0.0760987682716382	0.2058200846600151	0.4613148523414471
0.901	0.4361943481495827	0.1703690653962009	0.1782741163408584	0.0757796162644936	0.2075153959560428	0.4651895160315784
0.902	0.434307468494456	0.1707872332032897	0.1778210923312856	0.0754430469987679	0.2091761047604268	0.4689767370535421
0.903	0.4323733085435631	0.1712075642954635	0.1773962077714415	0.0750893708283808	0.210800826155159	0.4726735331459242
0.904	0.4303927696310869	0.1716296293711193	0.1770002185991552	0.0747189199254118	0.2123882014333597	0.4762769791445599
0.905	0.4283667860431953	0.1720529936998592	0.1766338701961228	0.0743320473648905	0.2139368995317307	0.479784210708694
0.906	0.4262963249380783	0.1724772179406925	0.1762978972417411	0.0739291261846848	0.21544561841161	0.4831924280098369
0.907	0.4241823862095109	0.1729018589678997	0.1759930235516127	0.0735105484241115	0.2169130863847981	0.4864988993778008
0.908	0.4220260022927409	0.1733264707024522	0.1757199618977174	0.073076724144728	0.2183380633806341	0.4897009648971385
0.909	0.419828237911433	0.1737506049469092	0.1754794138083509	0.0726280804366	0.2197193421512875	0.4927960399466984
0.91	0.4175901897645399	0.1741738122217964	0.1752720693453857	0.0721650604132125	0.2210557494130483	0.4957816186743445
0.911	0.4153129861523618	0.1745956426011672	0.1750986068570297	0.0716881221981169	0.2223461469221452	0.4986552773987917
0.912	0.4129977865415574	0.1750156465452399	0.1749596927039593	0.071197737906233	0.2235894324845356	0.5014146779299196
0.913	0.4106457810688017	0.175433375727955	0.1748559809567395	0.0706943926225995	0.224784540899674	0.5040575707985935
0.914	0.4082581899827908	0.1758483838573813	0.1747881130620541	0.0701785833811152	0.22593044483852	0.5065817983863171
0.915	0.405836263023493	0.17626022748741	0.1747567174755974	0.0696508181457329	0.2270261556559713	0.508985297944699
0.916	0.403381278737615	0.1766684668195854	0.1747624092594339	0.0691116147962611	0.228070724137599	0.5112661044944103
0.917	0.4008945437284059	0.1770726664938893	0.1748057896417326	0.0685615001208396	0.2290632411802434	0.5134223535935426
0.918	0.3983773918383149	0.1774723963674243	0.1748874455377899	0.0680010088169717	0.230002838405744	0.5154522839655039
0.919	0.3958311832632484	0.1778672322800703	0.1750079490312623	0.067430682502791	0.230888688707096	0.5173542399771588
0.92	0.3932573035974527	0.178256756805638	0.1751678568160238	0.066851068740302	0.2317200067259915	0.5191266739577682
0.921	0.3906571628085121	0.1786405599873374	0.1753677095997511	0.0662627200720902	0.2324960492606325	0.5207681483496143
0.922	0.3880321941420055	0.1790182400559558	0.1756080314705488	0.0656661930730843	0.233216115602196	0.5222773376805988
0.923	0.3853838529554091	0.1793894041288293	0.1758893292285994	0.0650620474187568	0.2338795477980375	0.5236530303491261
0.924	0.3827136154818493	0.1797536688880147	0.1762120916848302	0.0644508449711214	0.2344857308394687	0.5248941302114852
0.925	0.3800229775248617	0.1801106612355693	0.1765767889286991	0.0638331488837372	0.2350340927718901	0.5259996579624103
0.926	0.3773134530863004	0.1804600189237357	0.1769838715677081	0.0632095227269456	0.2355241047254915	0.5269687523005122
0.927	0.3745865729300487	0.1808013911578292	0.1774337699412943	0.0625805296344717	0.23595528086525	0.5278006708713385
0.928	0.3718438830847899	0.1811344391695355	0.1779268933116901	0.0619467314724831	0.2363271782600021	0.528494790982421
0.929	0.3690869432892742	0.1814588367583166	0.1784636290347412	0.0613086880321195	0.2366393966715062	0.5290506100863791
0.93	0.3663173253837424	0.181774270799542	0.1790443417129377	0.0606669562464184	0.2368915782658208	0.5294677460305917
0.931	0.3635366116509869	0.1820804417173625	0.1796693723335999	0.0600220894324195	0.2370834072509592	0.5297459370733462
0.932	0.3607463931106032	0.1823770639215409	0.1803390373948142	0.0593746365591842	0.2372146094459707	0.5298850416677574
0.933	0.3579482677697859	0.1826638662069678	0.1810536280227387	0.0587251415422399	0.2372849517878209	0.5298850380155427
0.934	0.3551438388336591	0.1829405921151743	0.181813409083284	0.0580741425648191	0.2372942417831428	0.5297460233939575
0.935	0.3523347128784952	0.1832070002572783	0.1826186182922772	0.0574221714261557	0.2372423269120875	0.5294682132606786
0.936	0.3495224979910586	0.1834628645977667	0.1834694653280705	0.0567697529169303	0.2371290939917444	0.5290519401431476
0.937	0.3467088018776046	0.1837079746993231	0.1843661309504672	0.0561174042219584	0.2369544685065557	0.5284976523205761
0.9380000000000001	0.3438952299471096	0.1839421359295202	0.1853087661297043	0.0554656343500154	0.2367184139130603	0.5278059123079724
0.9390000000000001	0.3410833833732811	0.1841651696308725	0.1862974911892934	0.0548149435908144	0.2364209309260359	0.5269773951516975
0.9400000000000001	0.3382748571409938	0.1843769132563285	0.1873323949658682	0.0541658229989735	0.2360620567926005	0.5260128865453377
0.9410000000000001	0.3354712380824339	0.184577220472252	0.1884135339894865	0.0535187539048845	0.2356418645605316	0.5249132807737997
0.9420000000000001	0.3326741029084484	0.1847659612308844	0.1895409316877584	0.0528742074522832	0.2351604623469064	0.5236795784933476
0.9430000000000001	0.3298850162402021	0.1849430218142463	0.1907145776171273	0.0522326441623463	0.2346179926133298	0.5223128843560576
0.9440000000000001	0.327105528645863	0.1851083048510526	0.1919344267252384	0.0515945135240543	0.2340146314539862	0.5208144044885686
0.9450000000000001	0.3243371746873138	0.1852617293082772	0.1932003986479981	0.0509602536106605	0.233350587902906	0.519185443836626
0.9460000000000001	0.3215814709808792	0.1854032304592057	0.1945123770454382	0.0503302907220677	0.2326261032665748	0.5174274033884592
0.9470000000000001	0.3188399142761306	0.1855327598294269	0.1958702089806643	0.0497050390529792	0.2318414504881244	0.5155417772910783
0.9480000000000001	0.3161139795562184	0.1856502851224998	0.1972737043457806	0.0490849003866089	0.2309969335489812	0.5135301498739152
0.9490000000000001	0.3134051181626692	0.1857557901267026	0.198722635338411	0.0484702638137194	0.2300928869134768	0.5113941925937616
0.9500000000000001	0.3107147559473749	0.1858492746037056	0.2002167359923807	0.0478615054765672	0.2291296750214818	0.5091356609142118
0.9510000000000001	0.308044291453568	0.1859307541606608	0.2017557017651063	0.0472589883373707	0.2281076918334081	0.506756391132079
0.9520000000000001	0.3053950941281037	0.1860002601065065	0.2033391891840351	0.046663061970694	0.2270273604313596	0.504258297162767
0.9530000000000001	0.3027685025672057	0.1860578392938931	0.2049668155538567	0.0460740623792801	0.2258891326793856	0.5016433672962292
0.9540000000000001	0.3001658227991221	0.1861035539483884	0.2066381587261661	0.0454923118326619	0.2246934889451824	0.4989136609346491
0.9550000000000001	0.2975883266074887	0.1861374814861502	0.2083527569326819	0.04491811872805	0.2234409378848279	0.4960713053226934
0.9560000000000001	0.2950372499004103	0.1861597143216452	0.2101101086833015	0.0443517774728119	0.2221320162915254	0.493118492280673
0.9570000000000001	0.2925137911300206	0.1861703596662483	0.2119096727298608	0.043793568388039	0.2207672890087103	0.490057474951003
0.9580000000000001	0.2900191097672647	0.1861695393188595	0.2137508680968676	0.043243757632553	0.2193473489074326	0.4868905645680461
0.9590000000000001	0.287554324836137	0.1861573894486731	0.2156330741793369	0.0427025971468994	0.2178728169273371	0.4836201272614269
0.96	0.285120513510473	0.1861340603707069	0.2175556309086754	0.0421703246167417	0.2163443421802566	0.4802485809024919
0.961	0.2827187097763072	0.1860997163140255	0.2195178389859632	0.0416471634551536	0.2147626021146918	0.4767783920029029
0.962	0.2803499031618659	0.1860545351830564	0.2215189601825906	0.041133322803326	0.2131283027392364	0.4732120726735291
0.963	0.2780150375377644	0.1859987083123747	0.2235582177077645	0.0406289975491823	0.2114421789025159	0.4695521776508487
0.964	0.2757150099897818	0.1859324402155436	0.2256347966422196	0.0401343683634041	0.2097049946271016	0.4658013013967294
0.965	0.2734506697673992	0.1858559483290397	0.2277478444380777	0.0396496017523786	0.2079175434947799	0.4619620752763194
0.966	0.2712228173108474	0.18576946275195	0.2298964714841471	0.0391748501275626	0.2060806490805378	0.4580371648173186
0.967	0.2690322033596995	0.1856732259830232	0.2320797517362351	0.0387102518907336	0.2041951654325057	0.4540292670525459
0.968	0.266879528145108	0.1855674926561154	0.2342967234115025	0.038255931534582	0.2022619775952127	0.4499411079465562
0.969	0.2647654406675971	0.1854525292759025	0.236546389745799	0.0378119997581808	0.2002820021732838	0.4457754399061492
0.97	0.2626905380617144	0.1853286139555175	0.2388277198130518	0.037378553596807	0.1982561879326597	0.4415350393741492
0.971	0.2606553650485188	0.1851960361575097	0.2411396494048672	0.0369556765656649	0.1961855164364252	0.4372227045057343
0.972	0.2586604134767949	0.1850550964396187	0.2434810819691676	0.0365434388170151	0.1940710027123328	0.4328412529266033
0.973	0.2567061219535255	0.1849061062062714	0.2458508896061542	0.0361418973102881	0.191913695949269	0.4283935195721662
0.974	0.254792875564353	0.1847493874668538	0.2482479141197704	0.0357510959947169	0.1897146802198962	0.4238823546065969
0.975	0.2529210056846458	0.1845852726013553	0.2506709681226492	0.0353710660041275	0.187475075226568	0.4193106214200081
0.976	0.2510907898817751	0.1844141041336399	0.2531188361925255	0.0350018258635077	0.1851960370673404	0.4146811947015218
0.977	0.2493024519087803	0.1842362345123328	0.2555902760775967	0.0346433817069798	0.182878759018633	0.4099969585856269
0.978	0.2475561617894151	0.1840520258986267	0.2580840199482394	0.0342957275068084	0.1805244723308239	0.4052608048684674
0.979	0.2458520359937976	0.1838618499604959	0.2605987756924603	0.0339588453130372	0.1781344470329904	0.4004756312901581
0.98	0.2441901377040076	0.1836660876720819	0.2631332282520645	0.0336327055033654	0.1757099927429435	0.3956443398779732
0.981	0.2425704771685072	0.1834651291168516	0.265686040996122	0.0333172670428631	0.1732524594786538	0.3907698353443468
0.982	0.2409930121441199	0.1832593732928492	0.2682558571282313	0.0330124777531207	0.1707632384672531	0.3858550235325329
